<?xml version="1.0" encoding="utf-8"?>
<!-- Generator: Adobe Illustrator 25.4.1, SVG Export Plug-In . SVG Version: 6.00 Build 0)  -->
<svg version="1.1" id="Layer_1" xmlns="http://www.w3.org/2000/svg" xmlns:xlink="http://www.w3.org/1999/xlink" x="0px" y="0px"
	 viewBox="0 0 566.93 566.93" style="enable-background:new 0 0 566.93 566.93;" xml:space="preserve">
<style type="text/css">
	.st0{fill:#B6E0ED;}
	.st1{fill:#A1CCD6;}
	.st2{fill:#FFFFFF;}
	.st3{fill:#F0F9FB;}
</style>
<path class="st0" d="M115.42,151.22h168l163.31,15.59L567.1,347.9V66.23C567.1,29.65,537.45,0,500.87,0H65.97
	C29.39,0-0.26,29.65-0.26,66.23v434.9c0,36.58,29.65,66.23,66.23,66.23h258.42L82.69,192.11L115.42,151.22z"/>
<path class="st1" d="M446.73,166.81l-150.15-14.33l-22.67,71.19l-45.34-65.15l-15.68,0.78l-4.84-8.08h-92.64l-32.73,40.88
	l241.7,375.25h176.48c36.58,0,66.23-29.65,66.23-66.23V347.9L446.73,166.81z"/>
<polygon class="st1" points="296.98,151.22 283.42,151.22 296.58,152.48 "/>
<polygon class="st0" points="228.58,158.52 273.92,223.67 296.58,152.48 283.42,151.22 208.06,151.22 212.9,159.3 "/>
<g>
	<path class="st2" d="M86.89,151.22h127.89c9.22,0,16.69,7.47,16.69,16.69v48.38c0,9.22-7.47,16.69-16.69,16.69h-96.47
		c-5.65,0-10.92-2.86-14-7.6l-31.42-48.38C65.67,165.9,73.64,151.22,86.89,151.22z"/>
	<path class="st3" d="M237.49,166.17v260.27c0,6.45,5.83,11.67,13.03,11.67h65.82c7.2,0,13.03-5.23,13.03-11.67V247.45
		c0-6.45,5.83-11.67,13.03-11.67h49.87c4.4,0,8.51-1.99,10.92-5.3l40.86-56.14c7.24-9.95-0.73-23.11-13.98-23.11H254.18
		C244.96,151.22,237.49,157.92,237.49,166.17z"/>
</g>
</svg>
